<!DOCTYPE svg PUBLIC "-//W3C//DTD SVG 1.1//EN" "http://www.w3.org/Graphics/SVG/1.1/DTD/svg11.dtd">
<!-- Uploaded to: SVG Repo, www.svgrepo.com, Transformed by: SVG Repo Mixer Tools -->
<svg fill="#ffffff" height="800px" width="800px" version="1.1" id="Layer_1" xmlns="http://www.w3.org/2000/svg" xmlns:xlink="http://www.w3.org/1999/xlink" viewBox="0 0 512 512" xml:space="preserve" stroke="#ffffff">
<g id="SVGRepo_bgCarrier" stroke-width="0"/>
<g id="SVGRepo_tracerCarrier" stroke-linecap="round" stroke-linejoin="round"/>
<g id="SVGRepo_iconCarrier"> <g> <g> <path d="M498.966,339.95c-7.197,0-13.034,5.835-13.034,13.034v49.804c0,28.747-23.388,52.135-52.135,52.135H78.203 c-28.747,0-52.135-23.388-52.135-52.135v-49.804c0-7.199-5.835-13.034-13.034-13.034C5.835,339.95,0,345.785,0,352.984v49.804 c0,43.121,35.082,78.203,78.203,78.203h355.594c43.121,0,78.203-35.082,78.203-78.203v-49.804 C512,345.785,506.165,339.95,498.966,339.95z"/> </g> </g> <g> <g> <path d="M419.833,391.305H92.167c-7.197,0-13.034,5.835-13.034,13.034s5.835,13.034,13.034,13.034h327.665 c7.199,0,13.034-5.835,13.034-13.034S427.031,391.305,419.833,391.305z"/> </g> </g> <g> <g> <path d="M386.882,136.832L277.708,39.301c-12.376-11.055-31.04-11.057-43.417,0l-109.174,97.53 c-5.369,4.795-5.833,13.035-1.037,18.404c4.795,5.367,13.034,5.835,18.405,1.037l100.482-89.764v252.61 c0,7.199,5.837,13.034,13.034,13.034c7.199,0,13.034-5.835,13.034-13.034V66.508l100.482,89.764 c2.486,2.221,5.588,3.315,8.678,3.315c3.583,0,7.15-1.469,9.726-4.351C392.714,149.867,392.25,141.629,386.882,136.832z"/> </g> </g> </g>
</svg>