<svg width="38" height="40" viewBox="0 0 38 40" fill="none" xmlns="http://www.w3.org/2000/svg">
    <path d="M23.75 3.01036C20.8107 1.31335 17.1893 1.31335 14.25 3.01036L6.66154 7.39156C3.72223 9.08857 1.91154 12.2248 1.91154 15.6188V24.3812C1.91154 27.7752 3.72223 30.9114 6.66154 32.6084L14.25 36.9896C17.1893 38.6867 20.8107 38.6866 23.75 36.9896L31.3385 32.6084C34.2778 30.9114 36.0885 27.7752 36.0885 24.3812V15.6188C36.0885 12.2248 34.2778 9.08857 31.3385 7.39156L23.75 3.01036Z" fill="#FFC5C8" stroke="#FFEDEE" stroke-width="3"/>
    <g style="mix-blend-mode:overlay">
        <path fill-rule="evenodd" clip-rule="evenodd" d="M19 15C17.3431 15 16 16.3431 16 18C16 19.6569 17.3431 21 19 21C20.6569 21 22 19.6569 22 18C22 16.3431 20.6569 15 19 15ZM14 18C14 15.2386 16.2386 13 19 13C21.7614 13 24 15.2386 24 18C24 20.7614 21.7614 23 19 23C16.2386 23 14 20.7614 14 18Z" fill="black"/>
        <path fill-rule="evenodd" clip-rule="evenodd" d="M12 27C12 24.7909 13.7909 23 16 23H22C24.2091 23 26 24.7909 26 27C26 27.5523 25.5523 28 25 28H13C12.4477 28 12 27.5523 12 27Z" fill="black"/>
        <path d="M19 21C20.6569 21 22 19.6569 22 18C22 16.3431 20.6569 15 19 15C17.3431 15 16 16.3431 16 18C16 19.6569 17.3431 21 19 21Z" fill="white"/>
        <path d="M26 27C26 24.7909 24.2091 23 22 23H16C13.7909 23 12 24.7909 12 27" stroke="white" stroke-width="2" stroke-linecap="round"/>
    </g>
</svg>