<svg width="38" height="40" viewBox="0 0 38 40" fill="none" xmlns="http://www.w3.org/2000/svg">
    <path d="M23.75 3.01036C20.8107 1.31335 17.1893 1.31335 14.25 3.01036L6.66154 7.39156C3.72223 9.08857 1.91154 12.2248 1.91154 15.6188V24.3812C1.91154 27.7752 3.72223 30.9114 6.66154 32.6084L14.25 36.9896C17.1893 38.6867 20.8107 38.6866 23.75 36.9896L31.3385 32.6084C34.2778 30.9114 36.0885 27.7752 36.0885 24.3812V15.6188C36.0885 12.2248 34.2778 9.08857 31.3385 7.39156L23.75 3.01036Z" fill="#FFC5C8" stroke="#FFEDEE" stroke-width="3"/>
    <g style="mix-blend-mode:overlay">
        <path d="M15 18C15.6 22 18.6 25 22 25L24 23C24.2 22.8 24.5 22.8 24.7 23L27.5 25C27.7 25.2 27.8 25.5 27.7 25.8C26.9 28.4 24.7 30 22 30C17 30 12 25 12 20C12 17.3 13.6 15.1 16.2 14.3C16.5 14.2 16.8 14.3 17 14.5L19 17C19.2 17.2 19.2 17.5 19 17.7L17 20C17 20 15.4 19.2 15 18Z" fill="#FFEDEE" stroke="black"/>
    </g>
</svg>
