<svg xmlns="http://www.w3.org/2000/svg" width="22" height="22" viewBox="350 709 22 22"><g data-name="Group 2050"><g data-name="Group 2048"><path d="M11 22c-2.938 0-5.7-1.144-7.778-3.222A10.928 10.928 0 0 1 0 11c0-2.938 1.144-5.7 3.222-7.778A10.928 10.928 0 0 1 11 0c2.938 0 5.7 1.144 7.778 3.222A10.928 10.928 0 0 1 22 11c0 2.938-1.144 5.7-3.222 7.778A10.929 10.929 0 0 1 11 22Zm.027-20.87c-5.457 0-9.896 4.44-9.896 9.896 0 5.457 4.44 9.896 9.896 9.896s9.895-4.439 9.895-9.896c0-5.456-4.44-9.896-9.895-9.896Z" fill-rule="evenodd" fill="url(#a)" transform="translate(350 709)" data-name="Exclusion 1"/></g><g data-name="Group 2049"><path d="m5 0 5 8H0z" fill-rule="evenodd" fill="url(#b)" transform="rotate(90 -174.5 540.5)" data-name="Polygon 4"/></g></g><defs><linearGradient x1=".5" y1="0" x2=".5" y2="1" id="a"><stop stop-color="#ed8770" offset="0"/><stop stop-color="#d9519d" offset="1"/></linearGradient><linearGradient x1=".5" y1="0" x2=".5" y2="1" id="b"><stop stop-color="#ed8770" offset="0"/><stop stop-color="#d9519d" offset="1"/></linearGradient></defs></svg>