<svg xmlns="http://www.w3.org/2000/svg" width="18.3" height="14.7" viewBox="71.983 705.983 18.3 14.7"><g data-name="003-playlist"><path d="M87.516 708.592a2.469 2.469 0 0 1-1.301-1.912.757.757 0 0 0-.809-.678.787.787 0 0 0-.702.799v9.139a3.49 3.49 0 0 0-1.516-.339c-1.675 0-3.032 1.132-3.032 2.527 0 1.395 1.357 2.527 3.032 2.527 1.571 0 2.865-.998 3.016-2.274a2.1 2.1 0 0 0 .016-.253v-7.56a.513.513 0 0 1 .795-.425l.013.008c.498.301 1.031.576 1.357 1.115.834 1.384.073 3.042-.75 4.237a.601.601 0 0 0-.003.682h.003a.599.599 0 0 0 .98.015c1.263-1.723 2.36-4.04 1.066-5.985-.518-.784-1.372-1.185-2.165-1.623Zm0 0" fill="#e2e2e2" fill-rule="evenodd" data-name="Path 68431"/><path d="M72.342 707H82.6c.189 0 .342.093.342.207v1.034c0 .115-.153.207-.342.207H72.342c-.189 0-.342-.092-.342-.207v-1.034c0-.114.153-.207.342-.207Zm0 0" fill="#e2e2e2" fill-rule="evenodd" data-name="Path 68434"/><path d="M72.342 710H82.6c.189 0 .342.093.342.207v1.034c0 .115-.153.207-.342.207H72.342c-.189 0-.342-.092-.342-.207v-1.034c0-.114.153-.207.342-.207Zm0 0" fill="#e2e2e2" fill-rule="evenodd" data-name="Path 68435"/><path d="M72.342 713H82.6c.189 0 .342.093.342.207v1.034c0 .115-.153.207-.342.207H72.342c-.189 0-.342-.092-.342-.207v-1.034c0-.114.153-.207.342-.207Zm0 0" fill="#e2e2e2" fill-rule="evenodd" data-name="Path 68436"/><path d="M72.171 716H77.3c.094 0 .171.093.171.207v1.034c0 .115-.077.207-.171.207h-5.129c-.094 0-.171-.092-.171-.207v-1.034c0-.114.077-.207.171-.207Zm0 0" fill="#e2e2e2" fill-rule="evenodd" data-name="Path 68437"/></g></svg>