<svg xmlns="http://www.w3.org/2000/svg" width="22.25" height="9.15" viewBox="179.983 707.983 22.25 9.15"><g data-name="001-repeat"><g data-name="Group 2089"><path d="M198.966 709.302h-8.888l.19-.19a.651.651 0 1 0-.92-.921l-1.302 1.302a.651.651 0 0 0 0 .92l1.302 1.302a.649.649 0 0 0 .92 0 .651.651 0 0 0 0-.92l-.19-.191h8.888c1.077 0 1.953.876 1.953 1.953a1.955 1.955 0 0 1-1.953 1.953h-2.648a.651.651 0 0 0 0 1.302h2.648a3.259 3.259 0 0 0 3.255-3.255 3.259 3.259 0 0 0-3.255-3.255Z" fill="#e2e2e2" fill-rule="evenodd" data-name="Path 68425"/><path d="M192.873 713.399a.651.651 0 1 0-.92.92l.19.191h-8.888a1.955 1.955 0 0 1-1.953-1.953c0-1.077.876-1.953 1.953-1.953h2.647a.651.651 0 0 0 0-1.302h-2.647a3.259 3.259 0 0 0-3.255 3.255 3.259 3.259 0 0 0 3.255 3.255h8.888l-.19.19a.65.65 0 1 0 .92.921l1.302-1.302a.651.651 0 0 0 0-.92l-1.302-1.302Z" fill="#e2e2e2" fill-rule="evenodd" data-name="Path 68426"/></g></g></svg>