<svg xmlns="http://www.w3.org/2000/svg" width="21.383" height="13.367" viewBox="123.983 705.983 21.383 13.367"><g data-name="002-shuffle"><path d="M142.678 716.674h-2.425a3.323 3.323 0 0 1-2.275-.896l-3.328-3.106 3.329-3.107a3.321 3.321 0 0 1 2.276-.897h2.424v1.335l2.669-2.002-2.669-2.001v1.334h-2.424a4.65 4.65 0 0 0-3.187 1.256l-7.698 7.186a3.326 3.326 0 0 1-2.275.898h-3.094v1.332H127.096a4.653 4.653 0 0 0 3.184-1.255l3.393-3.167 3.394 3.168c.868.81 2 1.256 3.186 1.256h2.425v1.334l2.669-2-2.669-2.002v1.334Z" fill="#e2e2e2" fill-rule="evenodd" data-name="Path 68429"/><path d="M127.095 708.67c.846 0 1.653.318 2.273.896l2.349 2.193.978-.912-2.417-2.255a4.648 4.648 0 0 0-3.182-1.256H124v1.332h3.09c.003 0 .004.002.005.002Z" fill="#e2e2e2" fill-rule="evenodd" data-name="Path 68430"/></g></svg>