<svg xmlns="http://www.w3.org/2000/svg" viewBox="0 0 48 48" width="48px" height="48px">
    <linearGradient id="SVGID_1_" x1="36" x2="8.382" y1="12" y2="39.618" gradientUnits="userSpaceOnUse">
        <stop offset="0" stop-color="#60e8fe"/>
        <stop offset=".033" stop-color="#6ae9fe"/>
        <stop offset=".197" stop-color="#97f0fe"/>
        <stop offset=".362" stop-color="#bdf5ff"/>
        <stop offset=".525" stop-color="#dafaff"/>
        <stop offset=".687" stop-color="#eefdff"/>
        <stop offset=".846" stop-color="#fbfeff"/>
        <stop offset="1" stop-color="#fff"/>
    </linearGradient>

    <!-- Main cloud shape with gradient -->
    <path fill="url(#SVGID_1_)" d="M40 26.5c0-3.4-2.6-6.2-5.9-6.5C32.8 14.1 27.6 10 21.5 10c-7.5 0-13.6 6.1-13.6 13.6 0 0.5 0 1 0.1 1.4C4.8 26.2 2.5 29.2 2.5 32.7c0 4.3 3.5 7.8 7.8 7.8h25.4c4.3 0 7.8-3.5 7.8-7.8 0-2.6-1.3-4.9-3.3-6.2"/>

    <!-- Upload arrow and dot -->
    <circle cx="24" cy="34" r="1.5" fill="#10cfe3"/>
    <path fill="none" stroke="#10cfe3" stroke-linecap="round" stroke-linejoin="round" stroke-miterlimit="10" stroke-width="3" d="M24 32v-12M19 25l5-5 5 5"/>

    <!-- Cloud outer stroke -->
    <path fill="none" stroke="#10cfe3" stroke-linecap="round" stroke-linejoin="round" stroke-miterlimit="10" stroke-width="3" d="M40 26.5c0-3.4-2.6-6.2-5.9-6.5C32.8 14.1 27.6 10 21.5 10c-7.5 0-13.6 6.1-13.6 13.6 0 0.5 0 1 0.1 1.4C4.8 26.2 2.5 29.2 2.5 32.7c0 4.3 3.5 7.8 7.8 7.8h25.4c4.3 0 7.8-3.5 7.8-7.8 0-2.6-1.3-4.9-3.3-6.2z"/>
</svg>