<svg xmlns="http://www.w3.org/2000/svg" viewBox="0 0 48 48" width="48px" height="48px">
    <linearGradient id="SVGID_1_" x1="36" x2="8.382" y1="12" y2="39.618" gradientUnits="userSpaceOnUse">
        <stop offset="0" stop-color="#FF519D" />
        <stop offset="0.2" stop-color="#DD5F94" />
        <stop offset="0.4" stop-color="#E16D8B" />
        <stop offset="0.6" stop-color="#E57B82" />
        <stop offset="0.8" stop-color="#E98979" />
        <stop offset="1" stop-color="#ED8770" />
    </linearGradient>

    <!-- Main cloud shape with gradient -->
    <path fill="url(#SVGID_1_)" d="M40 26.5c0-3.4-2.6-6.2-5.9-6.5C32.8 14.1 27.6 10 21.5 10c-7.5 0-13.6 6.1-13.6 13.6 0 0.5 0 1 0.1 1.4C4.8 26.2 2.5 29.2 2.5 32.7c0 4.3 3.5 7.8 7.8 7.8h25.4c4.3 0 7.8-3.5 7.8-7.8 0-2.6-1.3-4.9-3.3-6.2"/>

    <!-- Upload arrow and dot -->
    <circle cx="24" cy="34" r="1.5" fill="#ED8770"/>
    <path fill="none" stroke="#ED8770" stroke-linecap="round" stroke-linejoin="round" stroke-miterlimit="10" stroke-width="3" d="M24 32v-12M19 25l5-5 5 5"/>

    <!-- Cloud outer stroke -->
    <path fill="none" stroke="#D9519D" stroke-linecap="round" stroke-linejoin="round" stroke-miterlimit="10" stroke-width="3" d="M40 26.5c0-3.4-2.6-6.2-5.9-6.5C32.8 14.1 27.6 10 21.5 10c-7.5 0-13.6 6.1-13.6 13.6 0 0.5 0 1 0.1 1.4C4.8 26.2 2.5 29.2 2.5 32.7c0 4.3 3.5 7.8 7.8 7.8h25.4c4.3 0 7.8-3.5 7.8-7.8 0-2.6-1.3-4.9-3.3-6.2z"/>
</svg>